<?xml version="1.0" encoding="UTF-8" standalone="no"?>
<!DOCTYPE svg PUBLIC "-//W3C//DTD SVG 1.1//EN" "http://www.w3.org/Graphics/SVG/1.1/DTD/svg11.dtd">
<svg width="100%" height="100%" viewBox="0 0 1391 512" version="1.1" xmlns="http://www.w3.org/2000/svg" xmlns:xlink="http://www.w3.org/1999/xlink" xml:space="preserve" xmlns:serif="http://www.serif.com/" style="fill-rule:evenodd;clip-rule:evenodd;stroke-linecap:round;stroke-linejoin:round;stroke-miterlimit:1.5;">
    <g id="Artboard1" transform="matrix(2.7165,0,0,1,0,0)">
        <rect x="0" y="0" width="512" height="512" style="fill:none;"/>
        <g transform="matrix(0.574658,0,0,1.56106,324.532,-143.573)">
            <path d="M193.94,256L323.09,126.42L289.337,92.667L160,222.06L30.718,92.604L-3.037,126.347L126.06,256L-3.277,385.327L30.584,419.059L160,289.94L289.321,419.261L323.256,385.266L193.94,256Z" style="fill-rule:nonzero;"/>
        </g>
        <g transform="matrix(0.363544,0,0,0.987566,1.99271,1)">
            <path d="M515.772,476.172L373.89,334.577C405.39,298.077 416,260 416,208C416,93.1 322.9,0 208,0C93.1,0 0,93.1 0,208C0,322.9 93.1,416 208,416C260,416 298.545,405.959 335.045,374.459L476.284,515.895L515.772,476.172ZM208,368C119.6,368 48,296.4 48,208C48,119.6 119.6,48 208,48C296.4,48 368,119.6 368,208C368,296.4 296.4,368 208,368Z" style="fill-rule:nonzero;"/>
        </g>
        <g transform="matrix(0.368121,0,0,1,29.4497,0)">
            <path d="M595.435,3.509L597.778,510.7L614.138,510.7L614.138,3.509L595.435,3.509Z" style="stroke:black;stroke-width:1px;"/>
        </g>
    </g>
</svg>
