<?xml version="1.0" encoding="UTF-8" standalone="no"?>
<!DOCTYPE svg PUBLIC "-//W3C//DTD SVG 1.1//EN" "http://www.w3.org/Graphics/SVG/1.1/DTD/svg11.dtd">
<svg width="100%" height="100%" viewBox="0 0 51 67" version="1.1" xmlns="http://www.w3.org/2000/svg" xmlns:xlink="http://www.w3.org/1999/xlink" xml:space="preserve" xmlns:serif="http://www.serif.com/" style="fill-rule:evenodd;clip-rule:evenodd;stroke-linejoin:round;stroke-miterlimit:2;">
    <g id="Artboard1" transform="matrix(0.391981,0,0,0.629636,0,0)">
        <rect x="0" y="0" width="128" height="106" style="fill:none;"/>
        <g transform="matrix(2.55115,0,0,1.58822,0.253856,0)">
            <g id="Valmiit">
                <g id="updated-Hoivakotien-hallintatyökalu-vers2">
                    <g id="main-content">
                        <g id="Valokuvien-lisäys">
                            <g id="valokuvat-lisää">
                                <g id="Kuva-2">
                                    <g id="Ikoni">
                                        <g id="file-upload">
                                            <path id="Shape" d="M48.164,12.758L37.242,1.836C36.07,0.664 34.482,0 32.829,0L6.249,0C2.799,0.013 0,2.813 0,6.262L0,60.418C0,63.867 2.799,66.667 6.249,66.667L43.751,66.667C47.201,66.667 50,63.867 50,60.418L50,17.184C50,15.531 49.336,13.93 48.164,12.758ZM33.337,4.243C33.702,4.335 34.027,4.517 34.301,4.79L45.223,15.712C45.496,15.986 45.678,16.311 45.77,16.676L33.337,16.676L33.337,4.243ZM45.835,60.418C45.835,61.564 44.897,62.501 43.751,62.501L6.249,62.501C5.103,62.501 4.165,61.564 4.165,60.418L4.165,6.262C4.165,5.116 5.103,4.167 6.249,4.167L29.171,4.167L29.171,17.717C29.171,19.449 30.564,20.833 32.296,20.833L45.835,20.833L45.835,60.418ZM22.384,28.215L13.514,37.557C12.497,38.625 12.22,40.202 12.806,41.572C13.38,42.914 14.629,43.749 16.061,43.749L22.917,43.749L22.917,55.208C22.917,55.784 23.383,56.25 23.958,56.25L26.042,56.25C26.617,56.25 27.083,55.784 27.083,55.208L27.083,43.747L33.94,43.747C35.372,43.747 36.621,42.913 37.195,41.57C37.781,40.201 37.505,38.625 36.487,37.559L27.617,28.212C26.225,26.755 23.775,26.754 22.384,28.215ZM17.339,39.581L25,31.508L32.661,39.581L17.339,39.581Z" style="fill:rgb(110,110,110);fill-rule:nonzero;"/>
                                        </g>
                                    </g>
                                </g>
                            </g>
                        </g>
                    </g>
                </g>
            </g>
        </g>
    </g>
</svg>
