<?xml version="1.0" encoding="UTF-8" standalone="no"?>
<!DOCTYPE svg PUBLIC "-//W3C//DTD SVG 1.1//EN" "http://www.w3.org/Graphics/SVG/1.1/DTD/svg11.dtd">
<svg width="100%" height="100%" viewBox="0 0 32 29" version="1.1" xmlns="http://www.w3.org/2000/svg" xmlns:xlink="http://www.w3.org/1999/xlink" xml:space="preserve" xmlns:serif="http://www.serif.com/" style="fill-rule:evenodd;clip-rule:evenodd;stroke-linejoin:round;stroke-miterlimit:2;">
    <g id="Artboard1" transform="matrix(0.522252,0,0,0.48955,0,0)">
        <rect x="0" y="0" width="61" height="58" style="fill:none;"/>
        <g transform="matrix(1.91478,0,0,2.04269,0.257041,0.545376)">
            <g id="Valmiit">
                <g id="updated-Hoivakotien-hallintatyökalu-vers2">
                    <g id="main-content">
                        <g id="Valokuvien-lisäys">
                            <g id="valokuvat-lisää">
                                <g id="Kuva-1">
                                    <g id="Valokuva">
                                        <g id="IKONIT">
                                            <g id="Vaihda-kuva">
                                                <g id="content-box">
                                                    <g id="edit">
                                                        <path id="Shape" d="M22.848,17.254L23.942,16.16C24.15,15.952 24.5,16.1 24.5,16.39L24.5,25.375C24.5,26.824 23.324,28 21.875,28L2.625,28C1.176,28 0,26.824 0,25.375L0,6.125C0,4.676 1.176,3.5 2.625,3.5L18.61,3.5C18.9,3.5 19.048,3.855 18.84,4.058L17.746,5.152C17.686,5.212 17.598,5.25 17.516,5.25L2.625,5.25C2.144,5.25 1.75,5.644 1.75,6.125L1.75,25.375C1.75,25.856 2.144,26.25 2.625,26.25L21.875,26.25C22.356,26.25 22.75,25.856 22.75,25.375L22.75,17.484C22.75,17.396 22.783,17.314 22.848,17.254ZM30.827,6.798C30.827,6.798 13.738,23.888 13.738,23.888L8.274,24.495C7.541,24.577 6.923,23.959 7.005,23.226L7.613,17.763L24.702,0.673C25.599,-0.224 27.054,-0.224 27.951,0.673L30.827,3.549C31.724,4.446 31.724,5.901 30.827,6.798ZM25.709,9.445L22.061,5.797L9.286,18.566L8.832,22.673L12.939,22.22L25.709,9.445ZM29.591,4.785L26.715,1.909C26.507,1.701 26.157,1.69 25.944,1.909L23.297,4.555L26.945,8.203L29.591,5.556C29.805,5.348 29.805,4.998 29.591,4.785Z" style="fill:white;fill-rule:nonzero;"/>
                                                    </g>
                                                </g>
                                            </g>
                                        </g>
                                    </g>
                                </g>
                            </g>
                        </g>
                    </g>
                </g>
            </g>
        </g>
    </g>
</svg>
