<svg xmlns="http://www.w3.org/2000/svg" width="22" height="30" viewBox="0 0 22 30">
  <path fill="#3273C9" fill-rule="evenodd" d="M329.699088,506 C335.534954,506 340.398176,510.741641 340.398176,516.699088 C340.398176,521.56231 334.075988,530.194529 330.550152,535.544073 C330.06383,536.151976 329.212766,536.151976 328.848024,535.544073 C325.322188,530.194529 319,521.56231 319,516.699088 C319,510.741641 323.741641,506 329.699088,506 Z M329.699088,512.68693 C331.887538,512.68693 333.589666,514.510638 333.589666,516.699088 C333.589666,518.887538 331.887538,520.589666 329.699088,520.589666 C327.510638,520.589666 325.68693,518.887538 325.68693,516.699088 C325.68693,514.510638 327.510638,512.68693 329.699088,512.68693 Z" transform="translate(-319 -506)"/>
</svg>
