<svg xmlns="http://www.w3.org/2000/svg" width="23" height="32" viewBox="0 0 23 32">
  <path fill="#FFF" fill-rule="evenodd" stroke="#3273C9" d="M236.699088,521 C242.534954,521 247.398176,525.741641 247.398176,531.699088 C247.398176,536.56231 241.075988,545.194529 237.550152,550.544073 C237.06383,551.151976 236.212766,551.151976 235.848024,550.544073 C232.322188,545.194529 226,536.56231 226,531.699088 C226,525.741641 230.741641,521 236.699088,521 Z M236.699088,527.68693 C238.887538,527.68693 240.589666,529.510638 240.589666,531.699088 C240.589666,533.887538 238.887538,535.589666 236.699088,535.589666 C234.510638,535.589666 232.68693,533.887538 232.68693,531.699088 C232.68693,529.510638 234.510638,527.68693 236.699088,527.68693 Z" transform="translate(-225 -520)"/>
</svg>
