<?xml version="1.0" encoding="utf-8"?>
<!-- Generator: Adobe Illustrator 25.2.1, SVG Export Plug-In . SVG Version: 6.00 Build 0)  -->
<svg version="1.1" id="Layer_1" xmlns="http://www.w3.org/2000/svg" xmlns:xlink="http://www.w3.org/1999/xlink" x="0px" y="0px"
	 viewBox="0 0 1058 1069" style="enable-background:new 0 0 1058 1069;" xml:space="preserve">
<style type="text/css">
	.st0{fill:#FFFFFF;}
</style>
<g>
	<path d="M768.6,882H886v-30.3h-87V804h87v-30.3h-87V726h87v-30.3H768.6V882z M619.5,882h30.4V726h70.3v-30.3H549V726h70.5V882z
		 M429.8,851.7c-36.5,0-62.8-26.4-62.8-62.8c0-36.5,26.4-62.8,62.8-62.8c36.5,0,62.8,26.4,62.8,62.8
		C492.6,825.3,466.2,851.7,429.8,851.7 M429.8,882c53.5,0,93.2-39.9,93.2-93.2c0-53.2-39.7-93.2-93.2-93.2
		c-53.2,0-93.2,39.9-93.2,93.2C336.6,842.1,376.5,882,429.8,882 M233,882c34.6,0,57.5-20.5,57.5-52.2c0-33-25-45.2-51.4-54.6
		c-22.6-8-34.6-12.5-34.6-27.7c0-13.8,10.4-21.6,27.2-21.6c18.1,0,29,9.1,33.5,27.4l27.4-12c-7.2-28.7-29.3-45.8-61-45.8
		c-34.3,0-57.5,20.2-57.5,52.2c0,33,25.3,45.2,51.6,54.6c22.4,8,34.3,12.5,34.3,27.7c0,13.8-10.1,21.6-26.9,21.6
		c-18.4,0-29-9.1-33.5-27.4l-27.4,12C179.3,864.7,201.4,882,233,882"/>
	<path d="M265,635.5c49,0,86-35.9,86-85.7V449.2h-30.3v100.6c0,32.8-24,55.4-55.6,55.4s-55.6-22.6-55.6-55.4V449.2H179v100.6
		C179,599.6,216.3,635.5,265,635.5"/>
	<polygon points="182.5,186.3 182.5,372.6 301.5,372.6 301.5,342.3 212.8,342.3 212.8,186.3 	"/>
</g>
</svg>
